<?xml version="1.0" standalone="no"?><!DOCTYPE svg PUBLIC "-//W3C//DTD SVG 1.1//EN" "http://www.w3.org/Graphics/SVG/1.1/DTD/svg11.dtd"><svg class="icon" width="200px" height="200.00px" viewBox="0 0 1024 1024" version="1.1" xmlns="http://www.w3.org/2000/svg"><path fill="#333333" d="M853.333333 256v512H170.666667V256h682.666666z m0-85.333333H170.666667c-46.933333 0-85.333333 38.4-85.333334 85.333333v512c0 46.933333 38.4 85.333333 85.333334 85.333333h682.666666c46.933333 0 85.333333-38.4 85.333334-85.333333V256c0-46.933333-38.4-85.333333-85.333334-85.333333z"  /><path fill="#333333" d="M661.333333 362.666667h85.333334v298.666666h-85.333334z"  /><path fill="#333333" d="M640 362.666667h106.666667v85.333333h-106.666667zM298.666667 362.666667h85.333333v298.666666h-85.333333z"  /><path fill="#333333" d="M277.333333 362.666667h106.666667v85.333333h-106.666667zM554.666667 469.333333h-85.333334v-85.333333h85.333334v85.333333zM554.666667 640h-85.333334v-85.333333h85.333334v85.333333z"  /></svg>