<?xml version="1.0" standalone="no"?><!DOCTYPE svg PUBLIC "-//W3C//DTD SVG 1.1//EN" "http://www.w3.org/Graphics/SVG/1.1/DTD/svg11.dtd"><svg class="icon" width="200px" height="200.00px" viewBox="0 0 1024 1024" version="1.1" xmlns="http://www.w3.org/2000/svg"><path fill="#333333" d="M876.373333 223.146667l-59.306666-71.68C805.546667 136.96 788.053333 128 768 128H256c-20.053333 0-37.546667 8.96-49.493333 23.466667L147.626667 223.146667C135.253333 237.653333 128 256.853333 128 277.333333V810.666667c0 46.933333 38.4 85.333333 85.333333 85.333333h597.333334c46.933333 0 85.333333-38.4 85.333333-85.333333V277.333333c0-20.48-7.253333-39.68-19.626667-54.186666zM266.24 213.333333h491.52l34.56 41.386667H232.106667l34.133333-41.386667zM213.333333 810.666667V341.333333h597.333334v469.333334H213.333333z m360.533334-384h-123.733334v128H341.333333l170.666667 170.666666 170.666667-170.666666h-108.8z" /></svg>