<?xml version="1.0" standalone="no"?><!DOCTYPE svg PUBLIC "-//W3C//DTD SVG 1.1//EN" "http://www.w3.org/Graphics/SVG/1.1/DTD/svg11.dtd"><svg class="icon" width="200px" height="200.00px" viewBox="0 0 1024 1024" version="1.1" xmlns="http://www.w3.org/2000/svg"><path fill="#333333" d="M256 563.2h102.4v-102.4H256v102.4z m0 204.8h102.4v-102.4H256V768z m0-409.6h102.4V256H256v102.4z m0 204.8h102.4v-102.4H256v102.4z m0 204.8h102.4v-102.4H256V768z m0-409.6h102.4V256H256v102.4zM460.8 563.2h102.4v-102.4h-102.4v102.4z m0 204.8h102.4v-102.4h-102.4V768z m0-409.6h102.4V256h-102.4v102.4z m0 204.8h102.4v-102.4h-102.4v102.4z m0 204.8h102.4v-102.4h-102.4V768z m0-409.6h102.4V256h-102.4v102.4zM665.6 563.2H768v-102.4h-102.4v102.4z m0 204.8H768v-102.4h-102.4V768z m0-409.6H768V256h-102.4v102.4z m0 204.8H768v-102.4h-102.4v102.4z m0 204.8H768v-102.4h-102.4V768z m0-409.6H768V256h-102.4v102.4z"  /></svg>