<?xml version="1.0" standalone="no"?><!DOCTYPE svg PUBLIC "-//W3C//DTD SVG 1.1//EN" "http://www.w3.org/Graphics/SVG/1.1/DTD/svg11.dtd"><svg class="icon" width="200px" height="200.00px" viewBox="0 0 1024 1024" version="1.1" xmlns="http://www.w3.org/2000/svg"><path fill="#333333" d="M682.666667 341.333333h-85.333334v128h-128v85.333334h128v128h85.333334v-128h128v-85.333334h-128V341.333333zM85.333333 512c0-119.04 69.973333-221.866667 171.093334-269.653333V150.186667C107.52 203.093333 0 345.173333 0 512s107.52 308.906667 256.426667 361.813333v-92.16A298.24 298.24 0 0 1 85.333333 512z m554.666667-384c-211.626667 0-384 172.373333-384 384s172.373333 384 384 384 384-172.373333 384-384-172.373333-384-384-384z m0 682.666667c-164.693333 0-298.666667-133.973333-298.666667-298.666667s133.973333-298.666667 298.666667-298.666667 298.666667 133.973333 298.666667 298.666667-133.973333 298.666667-298.666667 298.666667z" /></svg>