<?xml version="1.0" standalone="no"?><!DOCTYPE svg PUBLIC "-//W3C//DTD SVG 1.1//EN" "http://www.w3.org/Graphics/SVG/1.1/DTD/svg11.dtd"><svg class="icon" width="200px" height="200.00px" viewBox="0 0 1024 1024" version="1.1" xmlns="http://www.w3.org/2000/svg"><path fill="#333333" d="M853.333333 170.666667H170.666667c-46.933333 0-85.333333 38.4-85.333334 85.333333v512c0 46.933333 38.4 85.333333 85.333334 85.333333h682.666666c46.933333 0 85.333333-38.4 85.333334-85.333333V256c0-46.933333-38.4-85.333333-85.333334-85.333333z m0 597.333333H170.666667V256h682.666666v512zM170.666667 0h682.666666v85.333333H170.666667z m0 938.666667h682.666666v85.333333H170.666667z m341.333333-426.666667a106.666667 106.666667 0 0 0 0-213.333333 106.666667 106.666667 0 0 0 0 213.333333z m0-149.333333c23.466667 0 42.666667 19.2 42.666667 42.666666s-19.2 42.666667-42.666667 42.666667-42.666667-19.2-42.666667-42.666667 19.2-42.666667 42.666667-42.666666z m213.333333 319.573333C725.333333 593.066667 584.106667 554.666667 512 554.666667s-213.333333 38.4-213.333333 127.573333V725.333333h426.666666v-43.093333z m-349.44-20.906667c26.026667-22.186667 86.613333-42.666667 136.106667-42.666666 49.92 0 110.506667 20.48 136.533333 42.666666H375.893333z" /></svg>