<?xml version="1.0" standalone="no"?><!DOCTYPE svg PUBLIC "-//W3C//DTD SVG 1.1//EN" "http://www.w3.org/Graphics/SVG/1.1/DTD/svg11.dtd"><svg class="icon" width="200px" height="200.00px" viewBox="0 0 1024 1024" version="1.1" xmlns="http://www.w3.org/2000/svg"><path fill="#333333" d="M469.333333 768c0 46.933333-38.4 85.333333-85.333333 85.333333s-85.333333-38.4-85.333333-85.333333 38.4-85.333333 85.333333-85.333333 85.333333 38.4 85.333333 85.333333z m-85.333333-341.333333c-46.933333 0-85.333333 38.4-85.333333 85.333333s38.4 85.333333 85.333333 85.333333 85.333333-38.4 85.333333-85.333333-38.4-85.333333-85.333333-85.333333z m0-256c-46.933333 0-85.333333 38.4-85.333333 85.333333s38.4 85.333333 85.333333 85.333333 85.333333-38.4 85.333333-85.333333-38.4-85.333333-85.333333-85.333333z m256 170.666666c46.933333 0 85.333333-38.4 85.333333-85.333333s-38.4-85.333333-85.333333-85.333333-85.333333 38.4-85.333333 85.333333 38.4 85.333333 85.333333 85.333333z m0 85.333334c-46.933333 0-85.333333 38.4-85.333333 85.333333s38.4 85.333333 85.333333 85.333333 85.333333-38.4 85.333333-85.333333-38.4-85.333333-85.333333-85.333333z m0 256c-46.933333 0-85.333333 38.4-85.333333 85.333333s38.4 85.333333 85.333333 85.333333 85.333333-38.4 85.333333-85.333333-38.4-85.333333-85.333333-85.333333z" /></svg>