<?xml version="1.0" standalone="no"?><!DOCTYPE svg PUBLIC "-//W3C//DTD SVG 1.1//EN" "http://www.w3.org/Graphics/SVG/1.1/DTD/svg11.dtd"><svg t="1664350348628" class="icon" viewBox="0 0 1024 1024" version="1.1" xmlns="http://www.w3.org/2000/svg" p-id="1280" xmlns:xlink="http://www.w3.org/1999/xlink" width="200" height="200"><path d="M832 149.333333a21.333333 21.333333 0 0 0-21.333333-21.333333H213.333333a21.333333 21.333333 0 0 0-21.333333 21.333333v704a21.333333 21.333333 0 0 0 21.333333 21.333334h298.666667a21.333333 21.333333 0 0 1 21.333333 21.333333v21.333333a21.333333 21.333333 0 0 1-21.333333 21.333334H149.333333a21.333333 21.333333 0 0 1-21.333333-21.333334V85.333333a21.333333 21.333333 0 0 1 21.333333-21.333333h725.333334a21.333333 21.333333 0 0 1 21.333333 21.333333v448a21.333333 21.333333 0 0 1-21.333333 21.333334h-21.333334a21.333333 21.333333 0 0 1-21.333333-21.333334V149.333333zM256 490.666667a21.333333 21.333333 0 0 1 21.333333-21.333334h128a21.333333 21.333333 0 0 1 21.333334 21.333334v21.333333a21.333333 21.333333 0 0 1-21.333334 21.333333h-128a21.333333 21.333333 0 0 1-21.333333-21.333333v-21.333333z m0-128a21.333333 21.333333 0 0 1 21.333333-21.333334h469.333334a21.333333 21.333333 0 0 1 21.333333 21.333334v21.333333a21.333333 21.333333 0 0 1-21.333333 21.333333H277.333333a21.333333 21.333333 0 0 1-21.333333-21.333333v-21.333333z m21.333333-149.333334a21.333333 21.333333 0 0 0-21.333333 21.333334v21.333333a21.333333 21.333333 0 0 0 21.333333 21.333333h469.333334a21.333333 21.333333 0 0 0 21.333333-21.333333v-21.333333a21.333333 21.333333 0 0 0-21.333333-21.333334H277.333333z m469.333334 448a128 128 0 1 1-256 0 128 128 0 0 1 256 0z m64 0a192 192 0 1 0-77.226667 153.941334l114.282667 121.258666a21.333333 21.333333 0 0 0 29.994666 1.024l15.658667-14.464a21.333333 21.333333 0 0 0 1.066667-30.293333l-116.736-123.861333A191.104 191.104 0 0 0 810.666667 661.333333z" p-id="1281"></path></svg>