<?xml version="1.0" standalone="no"?><!DOCTYPE svg PUBLIC "-//W3C//DTD SVG 1.1//EN" "http://www.w3.org/Graphics/SVG/1.1/DTD/svg11.dtd"><svg class="icon" width="200px" height="200.00px" viewBox="0 0 1024 1024" version="1.1" xmlns="http://www.w3.org/2000/svg"><path fill="#333333" d="M256 682.666667h512V341.333333H256v341.333334z m85.333333-256h341.333334v170.666666H341.333333v-170.666666z m-170.666666 213.333333H85.333333v128c0 46.933333 38.4 85.333333 85.333334 85.333333h128v-85.333333H170.666667v-128z m0-384h128V170.666667H170.666667c-46.933333 0-85.333333 38.4-85.333334 85.333333v128h85.333334V256z m682.666666-85.333333h-128v85.333333h128v128h85.333334V256c0-46.933333-38.4-85.333333-85.333334-85.333333z m0 597.333333h-128v85.333333h128c46.933333 0 85.333333-38.4 85.333334-85.333333v-128h-85.333334v128z" /></svg>