<?xml version="1.0" standalone="no"?><!DOCTYPE svg PUBLIC "-//W3C//DTD SVG 1.1//EN" "http://www.w3.org/Graphics/SVG/1.1/DTD/svg11.dtd"><svg t="1664350354053" class="icon" viewBox="0 0 1024 1024" version="1.1" xmlns="http://www.w3.org/2000/svg" p-id="1425" xmlns:xlink="http://www.w3.org/1999/xlink" width="200" height="200"><path d="M509.226667 256.064h421.546666a65.664 65.664 0 0 1 65.642667 65.642667v529.962666A65.664 65.664 0 0 1 930.773333 917.333333H129.664A65.664 65.664 0 0 1 64 851.669333V205.162667a65.664 65.664 0 0 1 65.664-65.664h294.485333a65.28 65.28 0 0 1 62.165334 45.44l22.912 71.125333zM129.664 205.162667v50.901333h310.805333l-16.32-50.901333H129.664z m-3.413333 127.68v503.722666a21.333333 21.333333 0 0 0 21.333333 21.333334h766.805333a21.333333 21.333333 0 0 0 21.333334-21.333334V332.842667a21.333333 21.333333 0 0 0-21.333334-21.333334H147.605333a21.333333 21.333333 0 0 0-21.333333 21.333334zM540.501333 405.333333h-35.626666a21.333333 21.333333 0 0 0-21.333334 21.333334v99.52a21.333333 21.333333 0 0 1-21.333333 21.333333H362.666667a21.333333 21.333333 0 0 0-21.333334 21.333333v35.626667a21.333333 21.333333 0 0 0 21.333334 21.333333h99.52a21.333333 21.333333 0 0 1 21.333333 21.333334V746.666667a21.333333 21.333333 0 0 0 21.333333 21.333333h35.626667a21.333333 21.333333 0 0 0 21.333333-21.333333v-99.52a21.333333 21.333333 0 0 1 21.333334-21.333334H682.666667a21.333333 21.333333 0 0 0 21.333333-21.333333v-35.626667a21.333333 21.333333 0 0 0-21.333333-21.333333h-99.52a21.333333 21.333333 0 0 1-21.333334-21.333333V426.666667a21.333333 21.333333 0 0 0-21.333333-21.333334z" p-id="1426"></path></svg>