<?xml version="1.0" standalone="no"?><!DOCTYPE svg PUBLIC "-//W3C//DTD SVG 1.1//EN" "http://www.w3.org/Graphics/SVG/1.1/DTD/svg11.dtd"><svg class="icon" width="200px" height="200.00px" viewBox="0 0 1024 1024" version="1.1" xmlns="http://www.w3.org/2000/svg"><path fill="#333333" d="M128 192v640h768V320H485.952l-128-128H128z m-32-64H384l128 128h416c9.344 0 17.024 3.008 23.04 8.96 5.952 6.016 8.96 13.696 8.96 23.04v576a31.168 31.168 0 0 1-8.96 23.04 31.168 31.168 0 0 1-23.04 8.96h-832a31.168 31.168 0 0 1-23.04-8.96 31.168 31.168 0 0 1-8.96-23.04v-704c0-9.344 3.008-17.024 8.96-23.04A31.168 31.168 0 0 1 96 128z m414.016 502.016l180.992-180.992 44.992 44.992-226.048 227.008L352 561.984l44.928-44.992L510.08 630.08z"  /></svg>