<?xml version="1.0" standalone="no"?><!DOCTYPE svg PUBLIC "-//W3C//DTD SVG 1.1//EN" "http://www.w3.org/Graphics/SVG/1.1/DTD/svg11.dtd"><svg class="icon" width="200px" height="200.00px" viewBox="0 0 1024 1024" version="1.1" xmlns="http://www.w3.org/2000/svg"><path fill="#333333" d="M128 352.96V352c0.64-59.328 16.832-112.64 48.512-160a281.664 281.664 0 0 1 129.536-104.96 281.344 281.344 0 0 1 165.504-17.536c55.68 11.008 104.832 37.12 147.456 78.464a191.232 191.232 0 0 1 102.528-19.008 192.96 192.96 0 0 1 96.96 37.504 183.04 183.04 0 0 1 64 82.048c12.992 33.024 16.512 67.52 10.496 103.488a63.104 63.104 0 0 1 44.992 24.96 62.208 62.208 0 0 1 12.992 49.024c-29.312 174.72-100.992 284.992-215.04 331.008v43.008c-0.64 27.328-9.984 49.984-27.968 67.968-17.984 18.048-40.64 27.392-67.968 28.032H384c-27.328-0.64-50.048-9.984-68.032-28.032-17.984-17.92-27.328-40.64-27.968-67.968v-43.008c-114.048-46.016-185.728-156.352-215.04-331.008a61.056 61.056 0 0 1 12.032-47.488A63.232 63.232 0 0 1 128 352.96zM192 352h64c1.344-45.312 17.024-83.008 47.04-113.024C332.992 209.024 370.688 193.344 416 192c45.312 1.344 83.008 17.024 113.024 46.976 29.952 30.08 45.632 67.712 46.976 113.024h64c-1.28-63.36-23.168-116.16-65.472-158.528C532.16 151.232 479.36 129.344 416 128c-63.36 1.344-116.16 23.168-158.464 65.472C215.168 235.84 193.28 288.64 192 352z m128 0h192c-0.64-27.328-9.984-49.984-27.968-68.032-18.048-17.92-40.704-27.008-68.032-27.008-27.328 0-49.984 9.024-67.968 27.008C329.984 302.08 320.64 324.672 320 352z m439.04 0h68.992a128.64 128.64 0 0 0 0.96-57.536 132.288 132.288 0 0 0-24-52.48 121.984 121.984 0 0 0-44.48-36.992 126.784 126.784 0 0 0-100.48-4.992c11.968 17.984 21.312 37.312 27.968 57.984a60.928 60.928 0 0 1 36.992 1.536c11.968 4.352 21.952 11.648 30.016 22.016a60.16 60.16 0 0 1 12.992 34.496 63.616 63.616 0 0 1-8.96 35.968zM672 768h-320v32c0 9.344 3.008 17.024 8.96 23.04 6.016 5.952 13.696 8.96 23.04 8.96h256a31.168 31.168 0 0 0 23.04-8.96 31.168 31.168 0 0 0 8.96-23.04V768z m-343.04-64h366.08c50.624-16 91.968-47.68 123.968-95.04 32-47.36 54.656-111.616 68.032-192.96H136.96c13.376 81.344 36.032 145.664 68.032 192.96 32 47.36 73.344 79.04 124.032 95.04z"  /></svg>