<?xml version="1.0" standalone="no"?><!DOCTYPE svg PUBLIC "-//W3C//DTD SVG 1.1//EN" "http://www.w3.org/Graphics/SVG/1.1/DTD/svg11.dtd"><svg class="icon" width="200px" height="200.00px" viewBox="0 0 1024 1024" version="1.1" xmlns="http://www.w3.org/2000/svg"><path fill="#333333" d="M512 960c-126.72-3.328-232.192-47.168-316.544-131.52C111.232 744.192 67.392 638.72 64 512c3.328-126.72 47.168-232.192 131.456-316.544C279.872 111.232 385.344 67.392 512 64c126.72 3.328 232.192 47.168 316.48 131.456C912.832 279.872 956.672 385.344 960 512c-3.328 126.72-47.168 232.192-131.52 316.48C744.192 912.832 638.72 956.672 512 960z m0-64c108.672-2.688 199.168-40.192 271.488-112.512S893.312 620.672 896 512c-2.688-108.672-40.192-199.168-112.512-271.488S620.672 130.688 512 128c-108.672 2.688-199.168 40.192-271.488 112.512S130.688 403.328 128 512c2.688 108.672 40.192 199.168 112.512 271.488S403.328 893.312 512 896zM187.008 267.968c16-16 31.68-31.36 46.976-46.016 17.408 30.72 39.36 57.728 66.048 81.024l-32.96 56.96a378.688 378.688 0 0 1-80-91.968h-0.064zM840.96 263.04a402.112 402.112 0 0 1-83.968 97.024l-32.96-56a318.016 318.016 0 0 0 68.928-86.016c15.36 14.016 31.36 28.992 48 44.992zM465.984 445.056l11.072-63.04c23.296 2.688 46.656 2.688 69.952 0l11.008 63.04c-30.656 4.032-61.312 4.032-91.968 0z m-62.976-12.992A396.992 396.992 0 0 1 320 396.992l32-56c19.328 11.328 40 20.672 62.016 28.032l-11.008 62.976zM704 396.992c-25.984 14.72-53.696 26.368-83.008 35.008l-11.008-62.976c22.016-7.36 42.688-16.704 62.016-28.032l32 56zM183.04 760.96a402.24 402.24 0 0 1 83.968-96.96l33.024 56a342.144 342.144 0 0 0-68.032 84.032c-16-13.376-32.32-27.712-48.96-43.072z m657.92 1.024c-16.64 15.36-32.96 29.696-48.96 43.008a335.04 335.04 0 0 0-68.032-84.928l33.024-56c33.344 27.968 61.376 60.672 84.032 97.984zM465.984 579.008c30.72-4.032 61.376-4.032 92.032 0l-11.008 62.976a307.392 307.392 0 0 0-70.016 0l-10.944-62.976z m-62.976 12.992l11.008 63.04c-22.016 7.296-42.688 16.64-62.016 27.968L320 627.008c25.984-14.72 53.696-26.368 83.008-35.008zM704 627.008l-32 56a356.864 356.864 0 0 0-63.04-28.032l12.032-62.976c29.312 8.64 56.96 20.352 83.008 35.008z"  /></svg>