<?xml version="1.0" standalone="no"?><!DOCTYPE svg PUBLIC "-//W3C//DTD SVG 1.1//EN" "http://www.w3.org/Graphics/SVG/1.1/DTD/svg11.dtd"><svg class="icon" width="200px" height="200.00px" viewBox="0 0 1024 1024" version="1.1" xmlns="http://www.w3.org/2000/svg"><path fill="#333333" d="M256 409.984V96c0-9.344 3.008-17.024 8.96-23.04A31.168 31.168 0 0 1 288 64c9.344 0 17.024 3.008 23.04 8.96 5.952 6.016 8.96 13.696 8.96 23.04v313.984c19.328-6.656 34.816-18.176 46.464-34.496C378.24 359.168 384 340.672 384 320V96c0-9.344 3.008-16.96 8.96-22.976a31.168 31.168 0 0 1 23.04-8.96c9.344 0 17.024 2.944 23.04 8.96 5.952 6.016 8.96 13.632 8.96 23.04V320a159.552 159.552 0 0 1-36.032 100.928A161.28 161.28 0 0 1 320 476.992V928a31.168 31.168 0 0 1-8.96 23.04 31.168 31.168 0 0 1-23.04 8.96 31.168 31.168 0 0 1-23.04-8.96 31.168 31.168 0 0 1-8.96-23.04V476.992a161.088 161.088 0 0 1-92.032-56A159.68 159.68 0 0 1 128 320V96c0-9.344 3.008-16.96 8.96-22.976a31.168 31.168 0 0 1 23.04-8.96c9.344 0 17.024 2.944 23.04 8.96 5.952 6.016 8.96 13.632 8.96 23.04V320c0 20.608 5.824 39.104 17.472 55.424 11.712 16.32 27.2 27.84 46.528 34.56z m416 161.984c-46.72-11.328-84.864-40-114.496-86.016C527.872 439.936 512.704 384.64 512 320c1.344-72.64 20.032-132.992 56-180.992S649.28 65.984 704 64c54.656 2.048 100.032 27.008 136 75.008S894.656 247.296 896 320c-0.64 64.64-15.808 120-45.504 166.016-29.696 46.08-67.84 74.688-114.496 86.016V928a31.168 31.168 0 0 1-8.96 23.04 31.168 31.168 0 0 1-23.04 8.96 31.168 31.168 0 0 1-23.04-8.96 31.168 31.168 0 0 1-8.96-23.04V571.968zM704 512c33.984-1.344 63.488-19.712 88.512-55.04 24.96-35.328 38.144-80.96 39.488-136.96-1.344-56-14.528-101.696-39.488-136.96-24.96-35.392-54.464-53.696-88.512-55.04-33.984 1.344-63.488 19.648-88.512 55.04C590.528 218.24 577.344 263.936 576 320c1.344 56 14.528 101.632 39.488 136.96S669.952 510.72 704 512z"  /></svg>