<?xml version="1.0" standalone="no"?><!DOCTYPE svg PUBLIC "-//W3C//DTD SVG 1.1//EN" "http://www.w3.org/Graphics/SVG/1.1/DTD/svg11.dtd"><svg class="icon" width="200px" height="200.00px" viewBox="0 0 1024 1024" version="1.1" xmlns="http://www.w3.org/2000/svg"><path fill="#333333" d="M256 320h512c0-78.72-12.352-142.72-36.992-192H296.96C269.76 192 256 256 256 320z m504 64h-496c16 57.344 46.464 103.36 91.52 138.048C400.512 556.672 452.608 574.72 512 576c59.328-1.344 111.488-19.392 156.48-54.016 45.056-34.688 75.52-80.704 91.52-138.048zM544 638.016v258.048H640c9.344 0 17.024 2.944 23.04 8.96 5.952 6.016 8.96 13.696 8.96 23.04a31.168 31.168 0 0 1-8.96 22.976 31.168 31.168 0 0 1-23.04 8.96H384a31.168 31.168 0 0 1-23.04-8.96 31.168 31.168 0 0 1-8.96-23.04c0-9.28 3.008-16.96 8.96-22.976a31.168 31.168 0 0 1 23.04-8.96h96V638.016c-83.328-9.984-151.68-44.48-204.992-103.488C221.696 475.52 193.984 404.032 192 320.064c0-85.376 21.312-170.688 64-256h512c42.688 64 64 149.312 64 256-1.984 83.968-29.696 155.52-83.008 214.464-53.312 59.008-121.664 93.44-204.992 103.488z"  /></svg>