<?xml version="1.0" standalone="no"?><!DOCTYPE svg PUBLIC "-//W3C//DTD SVG 1.1//EN" "http://www.w3.org/Graphics/SVG/1.1/DTD/svg11.dtd"><svg class="icon" width="200px" height="200.00px" viewBox="0 0 1024 1024" version="1.1" xmlns="http://www.w3.org/2000/svg"><path fill="#333333" d="M320 288v-22.016c1.344-57.344 20.032-104.96 56-143.04 35.968-37.952 81.28-57.6 136-59.008 54.656 1.344 100.032 21.056 136 59.008 35.968 38.016 54.656 85.696 56 143.04V288h131.008c8.64 0 15.808 2.688 21.504 8a35.136 35.136 0 0 1 10.496 20.992l56.96 576a28.8 28.8 0 0 1-7.424 24.512 30.464 30.464 0 0 1-23.488 10.496H131.008a30.4 30.4 0 0 1-23.488-10.496 28.928 28.928 0 0 1-7.488-24.512l56.96-576a35.328 35.328 0 0 1 10.56-20.992 30.08 30.08 0 0 1 21.504-8H320 320z m64 0h256v-22.016c-0.64-39.36-13.184-72-37.504-98.048a122.24 122.24 0 0 0-180.992 0c-24.32 26.048-36.8 58.688-37.504 98.048V288z m-64 64H217.984l-51.008 512h690.048l-51.008-512H704V448a31.168 31.168 0 0 1-9.024 23.04 31.168 31.168 0 0 1-23.04 8.96 31.168 31.168 0 0 1-22.976-8.96A31.168 31.168 0 0 1 640 448V352H384V448a31.168 31.168 0 0 1-9.024 23.04 31.168 31.168 0 0 1-23.04 8.96 31.168 31.168 0 0 1-22.976-8.96A31.168 31.168 0 0 1 320 448V352z"  /></svg>