<?xml version="1.0" standalone="no"?><!DOCTYPE svg PUBLIC "-//W3C//DTD SVG 1.1//EN" "http://www.w3.org/Graphics/SVG/1.1/DTD/svg11.dtd"><svg class="icon" width="200px" height="200.00px" viewBox="0 0 1024 1024" version="1.1" xmlns="http://www.w3.org/2000/svg"><path fill="#333333" d="M512 64C264.618667 64 64 264.618667 64 512S264.618667 960 512 960 960 759.381333 960 512 759.381333 64 512 64z m165.418667 618.24l-66.005334-0.341333L512 563.413333 412.714667 681.813333l-66.133334 0.298667a7.978667 7.978667 0 0 1-7.978666-8.021333c0-1.877333 0.682667-3.669333 1.877333-5.205334l130.133333-154.965333-130.133333-154.88a8.021333 8.021333 0 0 1 6.101333-13.226667l66.133334 0.298667L512 464.597333l99.285333-118.4 66.005334-0.298666c4.394667 0 8.021333 3.498667 8.021333 8.021333a8.32 8.32 0 0 1-1.92 5.162667l-129.877333 154.88 130.005333 155.050666a8.021333 8.021333 0 0 1-6.101333 13.226667z"  /></svg>