<?xml version="1.0" standalone="no"?><!DOCTYPE svg PUBLIC "-//W3C//DTD SVG 1.1//EN" "http://www.w3.org/Graphics/SVG/1.1/DTD/svg11.dtd"><svg class="icon" width="200px" height="200.00px" viewBox="0 0 1024 1024" version="1.1" xmlns="http://www.w3.org/2000/svg"><path fill="#333333" d="M896 528.96V512c-2.688-108.672-40.192-199.168-112.512-271.488S620.672 130.688 512 128c-108.672 2.688-199.168 40.192-271.488 112.512S130.688 403.328 128 512v16.96a127.872 127.872 0 0 1 128 0.512c20.032 11.712 35.712 27.2 46.976 46.528 11.392 19.328 17.024 40.64 17.024 64v128c-0.64 36.032-13.184 66.176-37.504 90.496-24.32 24.32-54.528 36.8-90.496 37.504-36.032-0.64-66.176-13.184-90.496-37.504-24.32-24.32-36.8-54.528-37.504-90.496V512c3.328-126.72 47.168-232.192 131.456-316.544C279.872 111.232 385.344 67.392 512 64c126.72 3.328 232.192 47.168 316.48 131.456C912.832 279.872 956.672 385.344 960 512v256c-0.64 36.032-13.184 66.176-37.504 90.496-24.32 24.32-54.528 36.8-90.496 37.504-36.032-0.64-66.176-13.184-90.496-37.504-24.32-24.32-36.8-54.528-37.504-90.496v-128c0-23.36 5.632-44.672 16.96-64 11.392-19.328 27.008-34.816 47.04-46.464a127.872 127.872 0 0 1 128-0.512zM896 640a64.512 64.512 0 0 0-19.008-44.992 61.248 61.248 0 0 0-44.992-18.048 60.864 60.864 0 0 0-44.992 18.048A64.64 64.64 0 0 0 768 640v128c0.64 17.984 7.04 33.024 19.008 44.992a61.248 61.248 0 0 0 44.992 18.048 60.928 60.928 0 0 0 44.992-18.048A64.64 64.64 0 0 0 896 768v-128zM128 640v128c0.64 17.984 7.04 33.024 19.008 44.992a61.248 61.248 0 0 0 44.992 18.048 60.864 60.864 0 0 0 44.992-18.048A64.64 64.64 0 0 0 256 768v-128a64.512 64.512 0 0 0-19.008-44.992A61.248 61.248 0 0 0 192 576.96a60.864 60.864 0 0 0-44.992 18.048A64.64 64.64 0 0 0 128 640z"  /></svg>