<?xml version="1.0" standalone="no"?><!DOCTYPE svg PUBLIC "-//W3C//DTD SVG 1.1//EN" "http://www.w3.org/Graphics/SVG/1.1/DTD/svg11.dtd"><svg class="icon" width="200px" height="200.00px" viewBox="0 0 1024 1024" version="1.1" xmlns="http://www.w3.org/2000/svg"><path fill="#333333" d="M739.008 291.008L704 284.992l-12.992-33.984a195.2 195.2 0 0 0-75.52-92.544 185.024 185.024 0 0 0-115.456-29.504 188.16 188.16 0 0 0-111.488 43.52 190.464 190.464 0 0 0-63.488 102.464l-10.048 40-40.96 7.04c-43.328 8.64-78.336 28.8-104.96 60.48-26.688 31.68-40.32 69.504-41.024 113.536 1.344 49.92 18.56 91.52 51.456 124.48 33.024 33.024 74.496 50.176 124.544 51.52h400c50.688-1.344 93.632-18.048 128.96-50.048s56-73.344 62.08-123.968c3.264-50.688-9.408-95.168-38.08-133.504-28.672-38.4-67.968-62.848-118.016-73.536v0.064zM960 480c-1.984 72.64-27.2 132.992-75.52 180.992-48.32 48-108.48 72.96-180.48 75.008H304a236.8 236.8 0 0 1-169.984-70.016 235.392 235.392 0 0 1-52.032-78.016A240.64 240.64 0 0 1 63.936 496c0.64-60.032 19.328-111.68 56-155.008S204.288 270.272 263.04 258.944c14.72-54.656 42.88-99.648 84.48-135.04 41.664-35.264 91.2-54.976 148.544-58.944a250.048 250.048 0 0 1 153.984 39.488 258.048 258.048 0 0 1 100.992 123.456c61.376 13.312 111.168 43.008 149.504 88.96 38.4 46.08 58.24 100.352 59.52 163.072V480z m-736 320c9.344 0 17.024 3.008 23.04 8.96 5.952 6.016 8.96 13.696 8.96 23.04v96a31.168 31.168 0 0 1-8.96 23.04 31.168 31.168 0 0 1-23.04 8.96 31.168 31.168 0 0 1-23.04-8.96 31.168 31.168 0 0 1-8.96-23.04V832c0-9.344 3.008-17.024 8.96-23.04a31.168 31.168 0 0 1 23.04-8.96z m192 0c9.344 0 17.024 3.008 23.04 8.96 5.952 6.016 8.96 13.696 8.96 23.04v96a31.168 31.168 0 0 1-8.96 23.04 31.168 31.168 0 0 1-23.04 8.96 31.168 31.168 0 0 1-23.04-8.96 31.168 31.168 0 0 1-8.96-23.04V832c0-9.344 3.008-17.024 8.96-23.04a31.168 31.168 0 0 1 23.04-8.96z m192 0c9.344 0 17.024 3.008 23.04 8.96 5.952 6.016 8.96 13.696 8.96 23.04v96a31.168 31.168 0 0 1-8.96 23.04 31.168 31.168 0 0 1-23.04 8.96 31.168 31.168 0 0 1-23.04-8.96 31.168 31.168 0 0 1-8.96-23.04V832c0-9.344 3.008-17.024 8.96-23.04a31.168 31.168 0 0 1 23.04-8.96z m192 0c9.344 0 17.024 3.008 23.04 8.96 5.952 6.016 8.96 13.696 8.96 23.04v96a31.168 31.168 0 0 1-8.96 23.04 31.168 31.168 0 0 1-23.04 8.96 31.168 31.168 0 0 1-23.04-8.96 31.168 31.168 0 0 1-8.96-23.04V832c0-9.344 3.008-17.024 8.96-23.04a31.168 31.168 0 0 1 23.04-8.96z"  /></svg>