<?xml version="1.0" standalone="no"?><!DOCTYPE svg PUBLIC "-//W3C//DTD SVG 1.1//EN" "http://www.w3.org/Graphics/SVG/1.1/DTD/svg11.dtd"><svg class="icon" width="200px" height="200.00px" viewBox="0 0 1024 1024" version="1.1" xmlns="http://www.w3.org/2000/svg"><path fill="#333333" d="M760 804.992l-91.008-91.008c-22.656 17.984-47.36 31.488-73.984 40.512-26.688 8.96-54.4 13.504-83.072 13.504-28.608 0-56.32-4.48-82.944-13.504a243.776 243.776 0 0 1-74.048-40.512l-91.008 91.008c34.688 29.312 73.152 51.84 115.456 67.52A378.816 378.816 0 0 0 512 896c47.36 0 92.032-8.064 134.016-24.064a392 392 0 0 0 113.984-66.944h0.064z m44.992-44.992a383.616 383.616 0 0 0 67.52-115.52A378.816 378.816 0 0 0 896 512c0-47.36-8.064-92.032-24.064-134.016a392 392 0 0 0-66.944-113.984l-91.008 90.944c17.28 22.016 30.656 46.208 39.936 72.512 9.344 26.368 14.08 54.528 14.08 84.544a250.048 250.048 0 0 1-54.08 157.056l91.072 90.944z m-44.992-540.992a383.552 383.552 0 0 0-115.52-67.456A378.88 378.88 0 0 0 512 128c-47.36 0-92.032 8-134.016 24-41.984 16-80 38.336-113.984 66.944l90.944 91.008c22.72-17.92 47.36-31.488 74.048-40.512 26.688-8.96 54.656-13.44 83.968-13.44a247.68 247.68 0 0 1 156.032 53.952l91.008-91.008z m-540.992 44.992a383.552 383.552 0 0 0-67.456 115.456A378.88 378.88 0 0 0 128 512c0 47.36 8 92.032 24 134.016 16 41.984 38.336 80 66.944 114.048l91.008-91.008a243.712 243.712 0 0 1-40.512-74.048 260.8 260.8 0 0 1-13.44-84.032 247.68 247.68 0 0 1 53.952-155.968L219.072 264z m416.96 395.008a377.6 377.6 0 0 0 23.04-23.04c14.016-16.64 24.96-35.456 32.96-56.448 8.064-21.056 12.032-43.52 12.032-67.52a190.528 190.528 0 0 0-68.032-147.008 186.88 186.88 0 0 0-57.984-33.472A193.92 193.92 0 0 0 511.936 320a190.528 190.528 0 0 0-147.008 68.032c-13.952 16.64-24.96 35.456-32.96 56.512-8 20.992-12.032 43.52-12.032 67.456a190.528 190.528 0 0 0 68.032 147.008c16.64 14.016 35.52 24.96 56.512 32.96 20.992 8.064 43.52 12.032 67.456 12.032 24 0 46.528-4.032 67.52-12.032 20.992-7.936 39.872-18.944 56.512-32.96zM512 960c-126.72-3.328-232.192-47.168-316.544-131.52C111.232 744.192 67.392 638.72 64 512c3.328-126.72 47.168-232.192 131.456-316.544C279.872 111.232 385.344 67.392 512 64c126.72 3.328 232.192 47.168 316.48 131.456C912.832 279.872 956.672 385.344 960 512c-3.328 126.72-47.168 232.192-131.52 316.48C744.192 912.832 638.72 956.672 512 960z"  /></svg>