<?xml version="1.0" standalone="no"?><!DOCTYPE svg PUBLIC "-//W3C//DTD SVG 1.1//EN" "http://www.w3.org/Graphics/SVG/1.1/DTD/svg11.dtd"><svg class="icon" width="200px" height="200.00px" viewBox="0 0 1024 1024" version="1.1" xmlns="http://www.w3.org/2000/svg"><path fill="#333333" d="M272.96 478.016h478.08V410.048h-478.08v67.968z m0 68.032v51.008c0 25.344 4.864 49.28 14.528 72 9.664 22.656 23.296 42.944 40.96 60.992 17.664 17.92 37.888 31.616 60.544 40.96 22.656 9.344 46.72 14.016 72 14.016h102.016c25.344 0 49.344-4.672 72-14.016 22.656-9.344 42.88-23.04 60.48-40.96 17.728-17.984 31.36-38.4 41.024-60.992 9.6-22.72 14.464-46.72 14.464-72v-51.008H272.96z m-33.92-205.056h545.984c9.344 0.64 17.344 4.16 24 10.496a31.232 31.232 0 0 1 9.984 23.488v222.016c-1.92 72.64-27.008 133.12-75.008 181.504-48 48.32-108.288 73.152-180.992 74.496H460.992a257.728 257.728 0 0 1-98.496-19.008 245.312 245.312 0 0 1-82.496-55.488 260.48 260.48 0 0 1-55.488-83.008 252.352 252.352 0 0 1-19.456-98.496V374.976c0-9.344 3.328-17.152 9.984-23.488a37.952 37.952 0 0 1 24-10.496zM512 34.048a32.64 32.64 0 0 1 24 9.984c6.656 6.656 9.984 14.72 9.984 24v171.008A33.6 33.6 0 0 1 512 273.088a32.128 32.128 0 0 1-24.512-10.048 33.728 33.728 0 0 1-9.536-24V68.032a32.64 32.64 0 0 1 10.048-24A32.896 32.896 0 0 1 512 34.048zM375.04 102.016c9.984 0.64 18.112 4.16 24.448 10.496a36.8 36.8 0 0 1 10.496 24.512v102.016a37.632 37.632 0 0 1-10.496 24 31.808 31.808 0 0 1-24 10.048 31.552 31.552 0 0 1-24-10.048 37.76 37.76 0 0 1-10.496-24V137.024a35.648 35.648 0 0 1 33.984-35.008z m273.92 0c9.344 0.64 17.216 4.16 23.488 10.496a36.992 36.992 0 0 1 10.496 24.512v102.016a37.632 37.632 0 0 1-10.496 24 31.808 31.808 0 0 1-24 10.048 31.552 31.552 0 0 1-24-10.048 37.76 37.76 0 0 1-10.496-24V137.024a36.8 36.8 0 0 1 10.496-24.512 36.8 36.8 0 0 1 24.512-10.496zM171.008 922.048h681.984a32.512 32.512 0 0 1 33.984 33.536c0.064 9.6-3.136 17.792-9.472 24.448a32.32 32.32 0 0 1-24.512 10.048H171.008a32.256 32.256 0 0 1-24.512-10.048 34.304 34.304 0 0 1-9.536-24.512 32.512 32.512 0 0 1 34.048-33.472z"  /></svg>