<?xml version="1.0" standalone="no"?><!DOCTYPE svg PUBLIC "-//W3C//DTD SVG 1.1//EN" "http://www.w3.org/Graphics/SVG/1.1/DTD/svg11.dtd"><svg class="icon" width="200px" height="200.00px" viewBox="0 0 1024 1024" version="1.1" xmlns="http://www.w3.org/2000/svg"><path fill="#333333" d="M192 414.016v482.048h640V414.016L512 147.008 192 414.016z m-52.032-40l352-292.992a31.744 31.744 0 0 1 40 0l352 292.992a31.232 31.232 0 0 1 12.032 24.96V928a31.168 31.168 0 0 1-8.96 23.04 31.168 31.168 0 0 1-23.04 8.96h-704a31.168 31.168 0 0 1-23.04-8.96 31.168 31.168 0 0 1-8.96-23.04V399.04c0-10.048 4.032-18.368 12.032-25.024z"  /></svg>