<?xml version="1.0" standalone="no"?><!DOCTYPE svg PUBLIC "-//W3C//DTD SVG 1.1//EN" "http://www.w3.org/Graphics/SVG/1.1/DTD/svg11.dtd"><svg class="icon" width="200px" height="200.00px" viewBox="0 0 1024 1024" version="1.1" xmlns="http://www.w3.org/2000/svg"><path fill="#333333" d="M308.032 488.96l227.008 227.072a32.832 32.832 0 0 0 44.992 0L784 512c37.312-39.36 56-84.48 56-135.488 0-51.008-18.688-96.512-56-136.512-40-37.312-85.504-56-136.512-56-51.008 0-96.192 18.688-135.488 56L308.032 444.032a33.408 33.408 0 0 0-9.024 22.976c0 8.64 3.008 16 8.96 22.016z m136 227.072l-136 134.976a92.992 92.992 0 0 1-133.504-1.536 92.992 92.992 0 0 1-1.536-133.44l135.04-136.064-44.992-44.928a97.152 97.152 0 0 1-27.008-68.544c0-26.368 8.96-48.832 27.008-67.456l203.968-204.032c52.672-49.984 113.024-75.008 180.992-75.008 67.968 0 128.32 24.96 180.992 75.008 49.984 52.672 75.008 113.024 75.008 180.992 0 67.968-24.96 128.32-75.008 180.992l-203.968 204.032a91.968 91.968 0 0 1-67.52 27.968 95.36 95.36 0 0 1-68.48-28.032l-44.992-44.992z m-44.992-46.016l-44.992-44.992-136 136a32.832 32.832 0 0 0-9.024 22.464c0 8.32 3.2 15.68 9.536 22.016a30.08 30.08 0 0 0 22.016 9.536c8.32 0 15.808-3.008 22.464-8.96l136-136.064z m248.96-384a32.832 32.832 0 0 1 0 44.992L467.008 512a32.832 32.832 0 0 1-32 8.512 28.864 28.864 0 0 1-22.464-22.464 30.592 30.592 0 0 1 8.512-31.04l180.992-180.992a31.616 31.616 0 0 1 22.976-10.048c8.64 0 16.32 3.392 23.04 10.048h-0.064z m90.048 89.984a31.616 31.616 0 0 1 9.984 23.04 31.616 31.616 0 0 1-9.984 22.976L557.056 601.984a30.08 30.08 0 0 1-30.528 8.512 29.76 29.76 0 0 1-22.464-22.464A29.824 29.824 0 0 1 512 556.992l180.992-180.928a30.528 30.528 0 0 1 22.464-9.024c8.96 0 16.512 3.008 22.528 8.96z"  /></svg>