<?xml version="1.0" standalone="no"?><!DOCTYPE svg PUBLIC "-//W3C//DTD SVG 1.1//EN" "http://www.w3.org/Graphics/SVG/1.1/DTD/svg11.dtd"><svg class="icon" width="200px" height="200.00px" viewBox="0 0 1024 1024" version="1.1" xmlns="http://www.w3.org/2000/svg"><path fill="#333333" d="M198.016 260.032c16-76.672 52.672-138.88 110.016-186.496C365.376 25.856 433.408 1.28 512.064 0c78.656 1.344 146.624 25.856 203.968 73.536 57.344 47.616 94.016 109.824 110.016 186.432 21.312 6.016 38.336 17.344 51.008 34.048 12.672 16.64 19.008 36.032 19.008 57.984v64c-0.64 22.016-7.296 41.536-19.968 58.56a93.248 93.248 0 0 1-52.032 34.432l-48.96 395.072a66.176 66.176 0 0 1-64 56H312.96a65.92 65.92 0 0 1-64-56l-48.96-395.008a93.248 93.248 0 0 1-51.968-34.56A100.544 100.544 0 0 1 128 416.128v-64a93.248 93.248 0 0 1 70.016-92.096h-0.064zM264 256h496c-16-57.344-46.464-103.36-91.52-138.048C623.616 83.328 571.392 65.28 512 64c-59.328 1.28-111.488 19.328-156.48 53.952-45.056 34.688-75.52 80.704-91.52 138.048z m495.04 256H264.96l48 384h398.08l48-384zM224 448h576a31.168 31.168 0 0 0 23.04-8.96 31.168 31.168 0 0 0 8.96-23.04v-64a31.168 31.168 0 0 0-8.96-23.04 31.168 31.168 0 0 0-23.04-8.96h-576a31.168 31.168 0 0 0-23.04 8.96 31.168 31.168 0 0 0-8.96 23.04v64c0 9.344 3.008 17.024 8.96 23.04 6.016 5.952 13.696 8.96 23.04 8.96zM384 640h64v64H384v-64z m192 64h64v64H576v-64z m-128 64h64v64H448v-64z m64-192h64v64H512V576z"  /></svg>