<?xml version="1.0" standalone="no"?><!DOCTYPE svg PUBLIC "-//W3C//DTD SVG 1.1//EN" "http://www.w3.org/Graphics/SVG/1.1/DTD/svg11.dtd"><svg class="icon" width="200px" height="200.00px" viewBox="0 0 1024 1024" version="1.1" xmlns="http://www.w3.org/2000/svg"><path fill="#333333" d="M128.96 448c4.672-52.672 24.896-96.64 60.544-131.968 35.648-35.328 79.808-55.36 132.48-60.032 9.344-57.344 35.392-103.808 78.08-139.52 42.624-35.584 93.312-53.12 151.936-52.48 58.688 3.328 107.84 24.192 147.52 62.528 39.68 38.336 62.144 86.784 67.456 145.472a207.616 207.616 0 0 1 128 176H896l-347.008 536.064a31.552 31.552 0 0 1-27.008 14.016 29.12 29.12 0 0 1-26.048-14.08L128 448.128h1.024V448z m64 0h286.08c-4.736-37.312-20.352-67.84-47.04-91.52A143.872 143.872 0 0 0 336 320a143.68 143.68 0 0 0-143.04 128zM544 448h286.976c-5.312-37.312-21.12-67.84-47.488-91.52-26.24-23.68-58.496-35.84-96.512-36.48-37.312 0.64-69.12 12.8-95.488 36.48-26.24 23.68-42.112 54.208-47.488 91.52zM248.96 512l272 396.992L777.984 512H248.96zM512 353.024c20.672-32.64 47.68-57.536 80.96-74.496A209.6 209.6 0 0 1 700.992 256a161.408 161.408 0 0 0-56.96-92.48 154.624 154.624 0 0 0-103.04-34.56 153.728 153.728 0 0 0-101.504 38.08c-28.352 24.64-46.144 56.32-53.504 94.976a204.16 204.16 0 0 1 72 33.536c21.312 15.616 39.36 34.816 54.016 57.472z"  /></svg>