<?xml version="1.0" standalone="no"?><!DOCTYPE svg PUBLIC "-//W3C//DTD SVG 1.1//EN" "http://www.w3.org/Graphics/SVG/1.1/DTD/svg11.dtd"><svg class="icon" width="200px" height="200.00px" viewBox="0 0 1024 1024" version="1.1" xmlns="http://www.w3.org/2000/svg"><path fill="#333333" d="M416 640h256a31.168 31.168 0 0 0 23.04-8.96 31.168 31.168 0 0 0 8.96-23.04v-448a31.168 31.168 0 0 0-8.96-23.04 31.168 31.168 0 0 0-23.04-8.96h-320a31.168 31.168 0 0 0-23.04 8.96 31.168 31.168 0 0 0-8.96 23.04v448c0 9.344 3.008 17.024 8.96 23.04 6.016 5.952 13.696 8.96 23.04 8.96h64z m192 64v160c-0.64 27.328-9.984 49.984-28.032 68.032-17.92 17.92-40.64 26.944-67.968 26.944-27.328 0-49.984-8.96-68.032-26.944-17.92-18.048-27.328-40.704-27.968-68.032V704h-64c-27.328-0.64-49.984-9.984-68.032-28.032-17.92-17.92-27.328-40.64-27.968-67.968v-448c0.64-27.328 9.984-49.984 28.032-68.032 17.92-17.92 40.64-27.328 67.968-27.968h320c27.328 0.64 49.984 9.984 68.032 28.032 17.92 17.92 27.328 40.64 27.968 67.968v448c-0.64 27.328-9.984 49.984-28.032 68.032-17.92 17.92-40.64 27.328-67.968 27.968h-64z m-64 0h-64v160c0 9.344 3.008 17.024 8.96 23.04 6.016 5.952 13.696 8.96 23.04 8.96a31.168 31.168 0 0 0 23.04-8.96 31.168 31.168 0 0 0 8.96-23.04V704z"  /></svg>