<?xml version="1.0" standalone="no"?><!DOCTYPE svg PUBLIC "-//W3C//DTD SVG 1.1//EN" "http://www.w3.org/Graphics/SVG/1.1/DTD/svg11.dtd"><svg class="icon" width="200px" height="200.00px" viewBox="0 0 1024 1024" version="1.1" xmlns="http://www.w3.org/2000/svg"><path fill="#333333" d="M256 411.008V96c0-9.344 3.008-17.024 8.96-23.04A31.168 31.168 0 0 1 288 64c9.344 0 17.024 3.008 23.04 8.96 5.952 6.016 8.96 13.696 8.96 23.04v315.008c19.328-7.36 34.816-19.2 46.464-35.456C378.24 359.104 384 340.608 384 320V96c0-9.28 3.008-16.96 8.96-22.976a31.168 31.168 0 0 1 23.04-8.96c9.344 0 17.024 2.944 23.04 8.96 5.952 6.016 8.96 13.696 8.96 23.04V320a159.552 159.552 0 0 1-36.032 100.928A161.28 161.28 0 0 1 320 477.056v451.072a31.168 31.168 0 0 1-8.96 22.976 31.168 31.168 0 0 1-23.04 8.96 31.168 31.168 0 0 1-23.04-8.96 31.168 31.168 0 0 1-8.96-23.04V477.12a161.088 161.088 0 0 1-92.032-56A159.68 159.68 0 0 1 128 320V96c0-9.28 3.008-16.96 8.96-22.976a31.168 31.168 0 0 1 23.04-8.96c9.344 0 17.024 2.944 23.04 8.96 5.952 6.016 8.96 13.696 8.96 23.04V320c0 20.608 5.824 39.104 17.472 55.424 11.712 16.32 27.2 28.16 46.528 35.52zM640 160v384h127.04c-3.392-78.72-13.056-148.032-29.056-208-13.952-54.656-46.656-113.344-97.984-176z m0 448v320a31.168 31.168 0 0 1-8.96 23.04 31.168 31.168 0 0 1-23.04 8.96 31.168 31.168 0 0 1-23.04-8.96 31.168 31.168 0 0 1-8.96-23.04V64h64c85.312 89.344 138.688 174.72 160 256 21.312 81.28 32 177.28 32 288h-192z"  /></svg>