<?xml version="1.0" standalone="no"?><!DOCTYPE svg PUBLIC "-//W3C//DTD SVG 1.1//EN" "http://www.w3.org/Graphics/SVG/1.1/DTD/svg11.dtd"><svg class="icon" width="200px" height="200.00px" viewBox="0 0 1024 1024" version="1.1" xmlns="http://www.w3.org/2000/svg"><path fill="#333333" d="M170.666667 554.666667h85.333333v-85.333334H170.666667v85.333334z m0 170.666666h85.333333v-85.333333H170.666667v85.333333z m0-341.333333h85.333333v-85.333333H170.666667v85.333333z m170.666666 170.666667h512v-85.333334H341.333333v85.333334z m0 170.666666h512v-85.333333H341.333333v85.333333z m0-426.666666v85.333333h512v-85.333333H341.333333zM170.666667 554.666667h85.333333v-85.333334H170.666667v85.333334z m0 170.666666h85.333333v-85.333333H170.666667v85.333333z m0-341.333333h85.333333v-85.333333H170.666667v85.333333z m170.666666 170.666667h512v-85.333334H341.333333v85.333334z m0 170.666666h512v-85.333333H341.333333v85.333333z m0-426.666666v85.333333h512v-85.333333H341.333333z"  /></svg>