<?xml version="1.0" standalone="no"?><!DOCTYPE svg PUBLIC "-//W3C//DTD SVG 1.1//EN" "http://www.w3.org/Graphics/SVG/1.1/DTD/svg11.dtd"><svg class="icon" width="200px" height="200.00px" viewBox="0 0 1024 1024" version="1.1" xmlns="http://www.w3.org/2000/svg"><path fill="#333333" d="M800 416c-1.984-81.344-30.144-149.12-84.48-203.52C661.12 158.272 593.28 130.048 512 128c-81.344 1.984-149.12 30.144-203.52 84.48-54.272 54.4-82.432 122.24-84.48 203.52 0 59.328 23.808 127.168 71.488 203.52 47.68 76.288 119.808 160.832 216.512 253.44 96.64-92.608 168.832-177.152 216.512-253.44 47.68-76.352 71.488-144.192 71.488-203.52zM512 960c-234.688-213.312-352-394.688-352-544 2.688-100.032 36.992-183.04 103.04-248.96C328.96 101.056 412.032 66.688 512 64c100.032 2.688 183.04 36.992 248.96 103.04 66.048 65.92 100.352 148.992 103.04 248.96 0 149.312-117.312 330.688-352 544z m0-512c17.984-0.64 33.024-7.04 44.992-19.008A61.248 61.248 0 0 0 575.04 384a60.864 60.864 0 0 0-18.048-44.992A61.12 61.12 0 0 0 512 321.024a61.12 61.12 0 0 0-44.992 17.984 60.864 60.864 0 0 0-17.984 44.992c0 17.984 6.016 32.96 17.984 44.992 11.968 12.032 27.008 18.368 44.992 19.008z m0 64c-36.032-0.64-66.176-13.184-90.496-37.504C397.184 450.176 384.704 419.968 384 384c0.64-36.032 13.184-66.176 37.504-90.496 24.32-24.32 54.528-36.8 90.496-37.504 36.032 0.64 66.176 13.184 90.496 37.504 24.32 24.32 36.8 54.528 37.504 90.496-0.64 36.032-13.184 66.176-37.504 90.496-24.32 24.32-54.528 36.8-90.496 37.504z m346.048 192L960 960h-288v-64h-320v64H64l102.016-256h691.968z m-69.056 0H235.008l-76.032 192h706.048l-76.032-192z"  /></svg>