<?xml version="1.0" standalone="no"?><!DOCTYPE svg PUBLIC "-//W3C//DTD SVG 1.1//EN" "http://www.w3.org/Graphics/SVG/1.1/DTD/svg11.dtd"><svg class="icon" width="200px" height="200.00px" viewBox="0 0 1024 1024" version="1.1" xmlns="http://www.w3.org/2000/svg"><path fill="#333333" d="M512 256c46.933333 0 85.333333 38.4 85.333333 85.333333s-38.4 85.333333-85.333333 85.333334-85.333333-38.4-85.333333-85.333334 38.4-85.333333 85.333333-85.333333m0 426.666667c115.2 0 247.466667 55.04 256 85.333333H256c9.813333-30.72 141.226667-85.333333 256-85.333333m0-512C417.706667 170.666667 341.333333 247.04 341.333333 341.333333s76.373333 170.666667 170.666667 170.666667 170.666667-76.373333 170.666667-170.666667-76.373333-170.666667-170.666667-170.666666z m0 426.666666c-113.92 0-341.333333 57.173333-341.333333 170.666667v85.333333h682.666666v-85.333333c0-113.493333-227.413333-170.666667-341.333333-170.666667z" /></svg>