<?xml version="1.0" standalone="no"?><!DOCTYPE svg PUBLIC "-//W3C//DTD SVG 1.1//EN" "http://www.w3.org/Graphics/SVG/1.1/DTD/svg11.dtd"><svg t="1664350319848" class="icon" viewBox="0 0 1024 1024" version="1.1" xmlns="http://www.w3.org/2000/svg" p-id="846" xmlns:xlink="http://www.w3.org/1999/xlink" width="200" height="200"><path d="M885.333333 490.666667c0 206.186667-167.146667 373.333333-373.333333 373.333333S138.666667 696.853333 138.666667 490.666667 305.813333 117.333333 512 117.333333 885.333333 284.48 885.333333 490.666667zM64 490.666667c0 247.402667 200.597333 448 448 448s448-200.597333 448-448S759.402667 42.666667 512 42.666667 64 243.264 64 490.666667z m325.546667-209.109334C421.226667 250.026667 464.917333 234.666667 519.893333 234.666667c49.002667 0 88.170667 12.458667 118.314667 38.826666C667.605333 299.136 682.666667 334.293333 682.666667 378.24c0 35.904-9.813333 65.941333-27.882667 89.386667-6.784 8.064-27.882667 27.093333-64.042667 57.152-13.568 11.733333-24.106667 24.170667-30.890666 37.354666a90.368 90.368 0 0 0-10.154667 27.882667c-2.218667 11.562667-11.456 21.205333-23.253333 21.205333h-37.952c-11.776 0-21.482667-9.578667-20.309334-21.290666 1.834667-18.24 6.186667-34.432 13.290667-48.298667 10.56-20.522667 39.189333-50.56 85.909333-90.837333l12.8-13.930667c13.568-16.853333 20.352-34.432 20.352-53.482667 0-25.642667-7.530667-45.418667-21.845333-60.074666-15.082667-14.656-36.181333-21.973333-63.296-21.973334-33.92 0-58.773333 10.24-73.834667 30.762667-10.453333 13.525333-16.853333 31.786667-19.264 54.165333-1.28 11.733333-10.645333 21.290667-22.421333 21.290667H362.666667c-11.776 0-21.461333-9.557333-20.437334-21.312 3.754667-43.392 19.370667-78.122667 47.317334-104.682667z m79.146666 396.330667c9.770667-10.24 22.592-14.656 38.4-14.656 15.829333 0 29.397333 4.394667 39.936 14.656 10.56 9.514667 15.829333 21.973333 15.829334 37.376 0 15.36-5.269333 27.818667-15.829334 38.08A60.842667 60.842667 0 0 1 507.093333 768c-15.808 0-28.629333-5.12-38.4-15.381333a48.234667 48.234667 0 0 1-16.597333-37.376c0-15.36 5.269333-27.84 16.576-37.333334z" p-id="847"></path></svg>