<?xml version="1.0" standalone="no"?><!DOCTYPE svg PUBLIC "-//W3C//DTD SVG 1.1//EN" "http://www.w3.org/Graphics/SVG/1.1/DTD/svg11.dtd"><svg class="icon" width="200px" height="200.00px" viewBox="0 0 1024 1024" version="1.1" xmlns="http://www.w3.org/2000/svg"><path fill="#333333" d="M313.173333 273.493333L36.693333 550.4l276.906667 276.48 276.906667-276.48-277.333334-276.906667zM157.44 550.4l156.16-156.16L469.333333 550.4l-156.16 156.16-155.733333-156.16z m668.586667-267.093333A381.866667 381.866667 0 0 0 554.666667 170.666667V32.426667L373.76 213.333333 554.666667 394.24V256c76.373333 0 152.746667 29.013333 211.2 87.466667a298.965333 298.965333 0 0 1 0 422.4 297.514667 297.514667 0 0 1-332.373334 61.44l-63.573333 63.573333C427.52 922.453333 491.093333 938.666667 554.666667 938.666667c98.133333 0 196.693333-37.546667 271.36-112.64a383.146667 383.146667 0 0 0 0-542.72z" /></svg>