<?xml version="1.0" standalone="no"?><!DOCTYPE svg PUBLIC "-//W3C//DTD SVG 1.1//EN" "http://www.w3.org/Graphics/SVG/1.1/DTD/svg11.dtd"><svg t="1664350339752" class="icon" viewBox="0 0 1024 1024" version="1.1" xmlns="http://www.w3.org/2000/svg" p-id="1137" xmlns:xlink="http://www.w3.org/1999/xlink" width="200" height="200"><path d="M589.013333 128l12.010667 83.2 4.8 34.389333 31.189333 14.4c12.8 6.4 26.410667 13.610667 38.4 21.610667l27.989334 18.410667 31.210666-12.010667L816.213333 256l76.010667 127.189333-67.2 51.2-28.010667 21.610667 3.2 35.2c0.810667 7.210667 0.810667 14.4 0.810667 20.8 0 6.4 0 13.589333-0.810667 20.8l-3.2 35.2 28.010667 21.589333 67.2 51.2L816.981333 768l-82.389333-32-31.210667-12.010667-27.989333 18.410667c-12.8 8.810667-25.6 16-38.4 21.610667l-31.189333 14.378666-4.821334 33.6L589.013333 896h-153.6l-12.010666-83.2-4.8-34.410667-31.189334-14.4c-12.8-6.4-26.410667-13.589333-38.4-21.589333l-28.010666-18.389333-31.189334 11.989333L208.213333 768l-76.010666-127.189333 67.2-51.2 28.010666-21.610667-3.2-35.2c-0.789333-7.210667-0.789333-14.4-0.789333-20.8 0-6.4 0-13.589333 0.789333-20.8l3.2-35.2-28.010666-21.589333-67.2-51.2L207.424 256l82.389333 32 31.189334 12.010667 28.010666-18.410667c12.8-8.789333 25.6-16 38.4-21.589333l31.189334-14.421334 4.821333-33.6L435.413333 128h153.6z m8.810667-64h-171.221333c-27.178667 0-49.6 19.2-53.589334 44.8l-12.8 92.8c-16 7.210667-31.210667 16-47.210666 26.410667l-90.389334-35.2c-6.4-2.410667-12.8-3.2-19.2-3.2-19.2 0-37.610667 9.6-46.4 26.389333l-85.610666 144a52.181333 52.181333 0 0 0 12.8 68.010667l76.010666 57.6c-0.789333 9.6-1.6 18.389333-1.6 26.389333 0 8 0 16.810667 1.6 26.410667l-76.010666 57.6c-20.778667 16-26.389333 43.989333-12.8 67.989333l84.8 143.189333a54.762667 54.762667 0 0 0 47.210666 27.2c6.4 0 12.010667-0.789333 18.410667-3.2l90.389333-35.2c15.210667 10.410667 31.210667 19.2 47.210667 26.410667l13.589333 92.010667c3.2 25.6 26.410667 45.589333 53.589334 45.589333h171.221333c27.178667 0 49.6-19.2 53.589333-44.8l13.589334-92.8c16-7.189333 31.210667-16 47.210666-26.389333l90.410667 35.2c6.4 2.389333 12.8 3.2 19.2 3.2 19.2 0 37.589333-9.6 46.378667-26.410667l85.610666-144.810667c12.8-23.189333 7.189333-51.2-13.610666-67.2l-75.989334-57.6c0.810667-7.978667 1.6-16.789333 1.6-26.389333 0-9.6-0.810667-18.410667-1.6-26.410667l76.010667-57.6c20.778667-16 26.389333-43.989333 12.8-67.989333l-84.821333-143.210667a54.762667 54.762667 0 0 0-47.189334-27.2c-6.4 0-12.010667 0.810667-18.389333 3.2l-90.410667 35.2c-15.189333-10.389333-31.189333-19.2-47.189333-26.389333l-13.610667-91.989333C647.402667 83.2 625.002667 64 597.824 64zM512.213333 384c70.4 0 128 57.6 128 128s-57.6 128-128 128-128-57.6-128-128 57.6-128 128-128z m0-64c-105.6 0-192 86.4-192 192s86.4 192 192 192 192-86.4 192-192-86.4-192-192-192z" p-id="1138"></path></svg>