<?xml version="1.0" standalone="no"?><!DOCTYPE svg PUBLIC "-//W3C//DTD SVG 1.1//EN" "http://www.w3.org/Graphics/SVG/1.1/DTD/svg11.dtd"><svg class="icon" width="200px" height="200.00px" viewBox="0 0 1024 1024" version="1.1" xmlns="http://www.w3.org/2000/svg"><path fill="#333333" d="M640 42.666667H384v85.333333h256V42.666667z m-170.666667 554.666666h85.333334V341.333333h-85.333334v256z m342.613334-282.026666l60.586666-60.586667c-18.346667-21.76-38.4-42.24-60.16-60.16l-60.586666 60.586667A382.378667 382.378667 0 0 0 512 170.666667c-212.053333 0-384 171.946667-384 384s171.52 384 384 384a383.744 383.744 0 0 0 299.946667-623.36zM512 853.333333c-165.12 0-298.666667-133.546667-298.666667-298.666666s133.546667-298.666667 298.666667-298.666667 298.666667 133.546667 298.666667 298.666667-133.546667 298.666667-298.666667 298.666666z" /></svg>